<svg xmlns="http://www.w3.org/2000/svg" width="512" height="512" viewBox="0 0 512 512"><path fill="#fff" fill-rule="evenodd" d="M335.5 20.618c-8.913 2.237-15.943 7.538-19.735 14.882-2.855 5.53-3.504 15.944-1.396 22.39 1.991 6.088 2.074 10.121.259 12.604-1.283 1.755-1.824 1.79-8.399.549-4.096-.773-9.051-1.047-11.878-.657-2.668.368-9.576 1.052-15.351 1.519-8.753.708-12.247 1.54-21 5.003a3019 3019 0 0 1-16 6.281c-7.61 2.943-25.355 13.118-35.421 20.311-4.619 3.3-13.726 10.909-20.238 16.909-6.775 6.241-13.766 11.757-16.341 12.892-9.504 4.189-21.997 16.25-27.246 26.302-9.247 17.71-8.947 34.036.959 52.227 2.495 4.581 6.398 13.581 8.673 20l4.137 11.67 4.752.305c4.684.301 4.793.387 7.648 6 4.103 8.069 11.601 18.32 20.622 28.195C199.451 288.844 203 294.37 203 298.952c0 1.958-1.83 9.858-4.067 17.554-4.953 17.04-5.97 28.328-3.512 38.994 4.119 17.871 7.396 34.622 8.045 41.124l.712 7.125-8.66.721c-4.763.397-8.884.497-9.159.223-.274-.274-1.173-3.13-1.998-6.346-3.689-14.386-13.026-27.543-23.049-32.478-4.264-2.099-6.178-2.366-16.812-2.343-10.475.023-12.596.32-16.69 2.332-11.737 5.77-20.811 21.26-22.444 38.314l-.639 6.671-8.613.626c-13.974 1.016-16.043 1.492-17.741 4.085-1.828 2.789-1.129 7.452 1.469 9.803 1.472 1.332 3.06 1.424 10.693.621 15.689-1.65 14.949-1.865 16.431 4.772 4.01 17.948 16.17 32.399 29.684 35.276 6.378 1.358 19.721-.237 26.35-3.151 11.973-5.262 20.665-19.828 23.083-38.685l1.145-8.929 6.033-.63c12.209-1.277 11.739-1.496 11.739 5.482 0 3.363-.922 9.927-2.049 14.588-1.675 6.93-1.843 9.098-.92 11.894 1.464 4.435 3.005 5.162 12.546 5.918 4.358.346 11.073 1.31 14.923 2.143 7.479 1.618 29.33 2.133 38.17.9 5.528-.772 8.736-3.208 8.161-6.197-.325-1.683-2.72-3.307-7.331-4.971-1.422-.513-.145-.994 4.419-1.664 5.346-.786 7.854-.594 15 1.146 6.571 1.6 11.183 2.033 19.693 1.847 12.022-.263 14.388-1.149 14.388-5.39 0-2.795-3.792-4.77-12.229-6.37-2.816-.534-6.954-2.089-9.195-3.456-19.023-11.596-21.124-13.136-22.922-16.798-1.015-2.068-1.628-4.327-1.362-5.021.52-1.356 52.91-6.293 54.745-5.159.53.327.963 1.623.963 2.879 0 2.786 3.027 11.773 5.774 17.146 3.135 6.13 9.487 12.728 15.371 15.966 4.863 2.677 6.149 2.933 13.986 2.788 10.641-.198 15.295-1.401 21.526-5.566 8.75-5.847 15.336-18.765 16.946-33.236.367-3.3 1.169-6.331 1.782-6.735s3.22-.741 5.794-.75c7.062-.023 9.769-3.789 6.293-8.752-1.387-1.979-2.124-2.127-7.925-1.585l-6.396.597-1.11-4.387c-3.689-14.58-12.358-26.627-22.209-30.865-4.55-1.957-6.49-2.182-15.76-1.828-12.211.466-16.014 1.968-22.72 8.972-6.957 7.267-12.352 20.598-12.352 30.524 0 5.222 1.876 4.732-26 6.805-11.825.88-23.709 1.871-26.409 2.202l-4.908.602.688-12.177c.379-6.698 1.362-17.453 2.185-23.9.823-6.448 1.738-18.923 2.032-27.723.615-18.388 2.586-28.935 6.009-32.149 6.163-5.788 6.406-22.8.508-35.579-1.755-3.802-3.105-8.387-3.105-10.542 0-4.05 4.441-12.565 16.287-31.23 14.776-23.279 14.621-22.966 17.822-36.048 2.215-9.053 4.353-14.909 7.835-21.452 2.633-4.95 5.584-11.475 6.557-14.5 1.253-3.895 3.346-7.169 7.175-11.219 10.018-10.597 13.958-25.039 9.55-35.004l-2.019-4.564 4.184-4.106c4.17-4.093 4.212-4.107 11.897-4.107C370.326 94 373 92.312 373 86.607c0-2.212.567-3.61 1.628-4.018 1.237-.474 1.493-1.457 1.066-4.088-.312-1.922-.106-3.746.462-4.097.575-.356.757-2.056.414-3.88-.426-2.272-.153-3.626.911-4.508 2.302-1.911 1.868-3.863-2.161-9.713-2.828-4.105-3.407-5.616-2.5-6.523 1.901-1.901 1.383-5.375-1.869-12.548-3.752-8.275-6.694-11.438-13.319-14.319-5.031-2.188-17.433-3.474-22.132-2.295m-3.5 2.919c-10.226 3.175-17.174 13.17-17.118 24.625.038 7.65 3.173 18.195 5.551 18.671.915.182 2.429-.268 3.365-1 1.549-1.213 1.572-1.168.263.497-.912 1.161-2.294 1.667-3.774 1.385-3.424-.655-3.852 1.075-1.018 4.116 2.489 2.671 4.731 6.367 4.731 7.799 0 .419-1.34-1.352-2.978-3.934-1.638-2.583-3.438-4.696-4-4.696-1.36 0-1.306 1.706.08 2.563 1.532.947 3.538 6.109 4.395 11.314.512 3.105.4 4.177-.388 3.691-.61-.378-1.121-2.122-1.135-3.877s-.814-4.944-1.777-7.087c-1.702-3.789-1.914-3.91-7.723-4.397-9.117-.764-17.837-.623-30.482.493-9.097.802-12.972 1.648-18.5 4.037-3.845 1.663-9.467 3.815-12.492 4.783-17.797 5.697-43.251 22.176-62.5 40.464-4.4 4.18-9.687 8.63-11.75 9.889-2.062 1.26-3.75 3.002-3.75 3.871 0 3.402 6.748 11.764 19.092 23.656 23.262 22.411 32.88 26.501 41.402 17.606 1.584-1.653 3.517-3.006 4.296-3.006.778 0 3.507-1.1 6.063-2.444s5.434-2.68 6.397-2.969 1.75-1.229 1.75-2.091c0-1.239-.405-1.35-1.934-.531-4.474 2.394-10.541.533-15.062-4.62l-2.497-2.845 3.09 2.787c4.273 3.854 9.164 5.072 13.966 3.477 4.596-1.527 5.13-3.013 6.395-17.805 1.055-12.331 3.927-20.897 10.588-31.584 2.451-3.933 5.113-8.664 5.916-10.513 1.304-3.003 1.464-3.102 1.499-.931.021 1.337-2.624 6.962-5.878 12.5-7.065 12.024-9.777 20.351-10.682 32.804-.675 9.282-1.152 10.921-9.091 31.265-9.765 25.023-9.516 23.988-13.356 55.486-1.738 14.263-2.361 16.993-4.615 20.246-1.993 2.876-2.722 5.385-3.1 10.675-.487 6.804-.581 6.999-5.867 12.219-8.665 8.558-6.69 9.541 3.796 1.89 3.873-2.826 6.832-4.407 6.832-3.651 0 2.14-5.392 8.985-9.872 12.534-3.711 2.939-5.434 6.101-3.324 6.101 2.082 0 10.317-6.27 14.282-10.873 2.428-2.82 4.758-5.126 5.178-5.127 1.46 0-5.076 11.525-9.159 16.153-2.258 2.56-4.105 5.147-4.105 5.75 0 4.049 9.095-3.47 14.616-12.084 4.037-6.298 6.825-9.379 4.419-4.885-.569 1.064-1.035 3.35-1.035 5.08s-1.168 6.066-2.597 9.635c-2.678 6.696-2.632 8.616.151 6.306 2.989-2.48 6.318-10.615 7.985-19.51 1.553-8.293 1.551-9.367-.038-16.722-.957-4.427-1.424-9.322-1.069-11.21 1.676-8.934 10.507-30.644 16.691-41.031 7.37-12.38 10.212-19.224 11.864-28.577 1.832-10.368 3.081-14.414 3.992-12.939 1.726 2.792 12.071-15.254 17.895-31.216 2.222-6.09 2.16-6.374-1.025-4.669-1.111.595-2.242.859-2.513.588s1.68-1.74 4.335-3.264c13.059-7.495 17.696-12.788 20.867-23.822 1.886-6.561 1.531-13.615-.924-18.363-1.321-2.554-1.322-3.338-.01-6.803l1.482-3.917-.558 4.27c-.389 2.978-.044 5.249 1.14 7.5 1.109 2.109 1.686 5.487 1.662 9.73-.065 11.539-5.804 22.102-15.712 28.919-3.619 2.49-4.659 4.094-7.497 11.566-1.812 4.771-3.048 8.921-2.746 9.223s2.877-.945 5.723-2.771c6.348-4.073 14.962-14.313 19.103-22.707 3.792-7.686 4.989-7.509 1.452.216-4.303 9.399-14.102 20.936-21.568 25.394l-3.415 2.039 2.671.671c9.541 2.394 25.507-8.363 32.79-22.091 1.301-2.452 2.72-4.459 3.152-4.459.433 0 .315.882-.261 1.959-.577 1.078-.937 2.316-.8 2.75.486 1.547-10.419 14.265-15.309 17.855-5.333 3.915-12.202 6.436-17.533 6.436-3.051 0-3.385.324-4.374 4.25-.589 2.338-3.942 10.1-7.451 17.25-7.706 15.7-9.811 21.39-12.022 32.5-2.615 13.135-8.427 37.939-10.199 43.522-1.269 4.001-1.382 6.012-.554 9.893.797 3.74.714 5.94-.36 9.478-1.631 5.373-1.838 10.107-.443 10.107 1.308 0 3.537-3.669 4.963-8.17.639-2.019 1.835-4.228 2.657-4.911 2.115-1.755 6.242 1.437 9.23 7.14 1.985 3.788 2.25 5.436 1.806 11.215-.585 7.609.407 7.992 2.766 1.069 2.362-6.933 1.268-16.84-2.984-27.016-4.101-9.816-4.252-13.727-.795-20.61 2.795-5.566 11.68-20.291 16.722-27.717l3.056-4.5-3.734 3.25c-6.302 5.486-5.47 3.614 1.556-3.5 7.964-8.063 11.767-15.521 14.869-29.155 1.526-6.705 3.93-13.059 7.983-21.095 3.19-6.325 6.119-12.621 6.508-13.992.633-2.228.534-2.348-.936-1.128-3.932 3.264-1.044-.584 6.253-8.332 8.963-9.515 12.249-16.309 12.354-25.548.065-5.629-2.289-12-4.432-12-1.996 0-7.611 4.883-10.931 9.506-4.059 5.652-5.181 5.024-1.313-.736 1.577-2.348 2.88-4.61 2.896-5.026s2.729-2.38 6.029-4.364c3.3-1.985 7.618-5.357 9.596-7.494L352.693 92h8.031c5.971 0 8.355-.39 9.295-1.522 1.482-1.787 2.219-8.478.933-8.478-.485 0-1.413-1.013-2.062-2.25-1.169-2.227-1.159-2.231.927-.379 2.645 2.348 5.728 1.516 4.296-1.16-.596-1.113-.618-2.38-.059-3.265 2.352-3.717.241-3.907-3.977-.357-1.692 1.424-3.077 2.115-3.077 1.536s1.652-2.176 3.672-3.548c2.55-1.733 3.706-3.29 3.785-5.097.089-2.031-.277-2.499-1.671-2.134-.982.257-1.786.107-1.786-.333 0-1.249 2.867-2.037 3.527-.969.861 1.393 2.177 1.17 2.809-.476.302-.788-.996-3.375-2.884-5.75-3.358-4.224-4.388-8.47-2.514-10.368.585-.593-.202-3.674-2.096-8.2L366.808 32h-8.782c-10.467 0-11.872.908-10.032 6.483 1.101 3.336.981 3.781-1.909 7.073-2.337 2.662-3.085 4.475-3.085 7.479 0 3.212-.356 3.965-1.878 3.965-1.032 0-2.473-.788-3.201-1.75-1.127-1.489-1.115-1.563.077-.5q4.001 3.567 4.002-2.827c0-3.157.649-4.725 2.874-6.951 2.716-2.716 2.814-3.102 1.768-7.017-1.537-5.758.278-6.955 10.549-6.955 4.295 0 7.806-.337 7.802-.75-.011-1.241-6.201-5.061-10.869-6.707-5.352-1.887-16.056-1.891-22.124-.006m26.25 22.452c-4.122 2.513-4.25 3.579-.177 1.473 1.938-1.002 4.145-1.353 5.976-.951 3.572.784 6.249-.491 3.385-1.613-3.262-1.278-5.792-.977-9.184 1.091m1.877 5.398-2.373 1.315 2.373.635c3.741 1.002 4.437.799 4.598-1.337.173-2.301-1.219-2.487-4.598-.613m-34.054 3.248c-1.14 1.449-2.073 3.038-2.073 3.532 0 2.552 3.133 7.792 5.791 9.684C332.78 69.98 338 70.798 338 69.139c0-.474-1.052-.661-2.338-.415-3.428.656-9.662-5.454-9.662-9.47 0-3.687 2.155-5.649 5.503-5.009 2.036.389 2.299.221 1.383-.882-1.767-2.129-4.546-1.61-6.813 1.272m41.395 8.466c-.367 1.155-.247 2.52.266 3.033.577.577.933-.224.933-2.101 0-3.573-.289-3.798-1.199-.932m-28.977 12.024c1.164 5.571 3.061 7.506 11.094 11.319 4.216 2.001 7.826 3.478 8.022 3.282s-2.84-1.902-6.747-3.791C343.244 82.253 340 79.113 340 75.424c0-1.268-.498-2.614-1.107-2.99-.774-.479-.895.33-.402 2.691m-70.118 4.282c-2.821 1.313-5.455 2.917-5.855 3.564s1.232.169 3.627-1.062 6.155-2.809 8.355-3.507c3.117-.988 3.448-1.281 1.5-1.325-1.375-.032-4.807 1.017-7.627 2.33m21.714-1.987c.695.695 8.913 3.38 8.913 2.912 0-.602-6.666-3.332-8.135-3.332-.659 0-1.009.189-.778.42m-37.014 12.215c-1.371 1.743-2.073 4.098-2.073 6.958 0 3.647.601 4.955 3.845 8.365 2.115 2.223 4.306 4.042 4.869 4.042s-.943-1.966-3.346-4.368c-3.7-3.701-4.368-4.98-4.368-8.366 0-2.529.761-4.964 2.073-6.631 1.139-1.449 1.847-2.635 1.572-2.635s-1.433 1.186-2.572 2.635m27.19 1.961c-1.286 2.849-1.763 6.472-1.763 13.404 0 8.641.303 10.17 3.355 16.908 1.846 4.074 3.743 9.474 4.217 12l.861 4.592-.419-5c-.23-2.75-2.069-9.01-4.085-13.912-3.376-8.203-3.631-9.515-3.217-16.5.264-4.452 1.171-8.97 2.193-10.931.958-1.839 1.49-3.595 1.182-3.903-.308-.309-1.354 1.196-2.324 3.342m28.095.379c3.524 3.901 4.217 5.508 4.968 11.525.277 2.218.413 1.875.524-1.316.083-2.373-.355-5.298-.972-6.5-1.457-2.836-5.988-7.684-7.181-7.684-.512 0 .686 1.789 2.661 3.975m27.269-.625c-.391 1.559-2.493 6.79-4.669 11.625-2.177 4.834-3.958 9.157-3.958 9.607 0 1.172 2.328-1.315 2.643-2.822.144-.693 1.89-5.215 3.88-10.049s3.437-9.331 3.217-9.992c-.221-.662-.722.072-1.113 1.631m-104.647 3.4c-3.741 4.24-10.773 16.25-9.515 16.25.272 0 1.394-1.764 2.494-3.92s4.241-6.881 6.98-10.5 4.812-6.58 4.606-6.58-2.261 2.138-4.565 4.75m-19.732 12c-3.212 4.677-6.96 11.629-7.681 14.25-.378 1.375.698.05 2.392-2.945a884 884 0 0 1 5.603-9.75c2.813-4.801 2.609-5.812-.314-1.555M330.5 109c-.34.55-.168 1 .382 1s1.278-.45 1.618-1 .168-1-.382-1-1.278.45-1.618 1m-8.263 6.036c.564 2.22 1.22 3.841 1.458 3.602.701-.701-.843-7.638-1.7-7.638-.43 0-.321 1.816.242 4.036m10.216 1.111c-3.716 3.898-3.186 4.472.89.962 1.723-1.484 4.132-5.109 3.395-5.109-.183 0-2.111 1.866-4.285 4.147m2.742 4.353c.02 1.65.244 2.204.498 1.231s.237-2.323-.037-3-.481.119-.461 1.769M217 125.627c2.475.211 9.599 1.093 15.83 1.961 10.503 1.462 19.105 1.304 21.875-.404.611-.376-3.686-.71-9.547-.742-5.862-.031-15.608-.314-21.658-.627-6.05-.314-8.975-.398-6.5-.188m49.63 7.623c-1.318 4.92-.585 10.905 1.948 15.905 2.454 4.843 2.51 5.298 1.148 9.434-.787 2.391-1.059 4.117-.606 3.837.454-.281 1.355-2.278 2.002-4.439 1.064-3.551.911-4.523-1.597-10.11-2.304-5.136-2.68-7.085-2.221-11.529.583-5.653.327-6.831-.674-3.098m-30.6-.868c-.054 1.566 4.098 7.618 5.226 7.618.601 0 .176-1.012-.945-2.25s-2.536-3.15-3.144-4.25-1.12-1.603-1.137-1.118M246.537 134c.802 2.987 3.441 7.355 4.066 6.73.244-.244-.722-2.42-2.147-4.837-1.587-2.691-2.331-3.425-1.919-1.893m-82.228 4.779a5169 5169 0 0 0-8.427 7.211c-13.989 11.996-20.993 33.731-16.414 50.937.794 2.985 3.67 9.735 6.389 15s6.396 13.733 8.168 18.818l3.222 9.245 3.286-2.885c1.807-1.587 4.622-3.674 6.254-4.638 2.478-1.464 3.066-2.578 3.56-6.746.325-2.746.837-5.238 1.137-5.538.3-.301 2.006.869 3.791 2.599l3.244 3.144 6.491-2.353c8.513-3.086 20.666-4.989 27.412-4.293l5.401.557-1.5-4.401c-.825-2.421-2.487-5.867-3.693-7.658-2.872-4.261-11.9-8.675-19.858-9.709-6.11-.794-6.15-.819-1.557-.942 5.308-.143 12.888 2.119 17.093 5.1 4.412 3.129 4.384 1.229-.048-3.202-4.458-4.459-4.093-5.438.566-1.518 3.044 2.561 9.181 15.663 11.324 24.175.603 2.393 1.42 4.553 1.817 4.798.396.245 2.913-.387 5.592-1.404l4.872-1.849 1.712-9.703c.942-5.337 1.982-10.408 2.313-11.269.332-.867-.252-2.501-1.309-3.66-1.05-1.152-2.155-3.445-2.454-5.095s-1.13-4.665-1.847-6.699c-1.278-3.626-1.388-3.688-5.499-3.125-6.992.958-10.864-.405-19.385-6.826-12.541-9.449-32.156-29.355-35.04-35.559-1.332-2.865-2.647-5.214-2.922-5.221s-1.936 1.213-3.691 2.709m68.351-1.334c-.931 2.424-2.003 12.121-1.265 11.441.366-.337 1.092-3.234 1.613-6.438.939-5.767.786-7.96-.348-5.003M243.723 142c-.383 1.375-.661 3.625-.619 5 .066 2.152.21 2.034 1.04-.849.531-1.842.809-4.092.62-5-.244-1.167-.549-.918-1.041.849m-80.723.577c0 3.104 14.81 21.423 17.319 21.423.615 0-1.422-2.588-4.526-5.75s-7.253-8.215-9.219-11.227S163 142.01 163 142.577m24.509 3.244c.484 3.895 6.786 18.179 8.02 18.179.278 0-.709-2.363-2.191-5.25-1.483-2.887-3.522-7.95-4.531-11.25-1.672-5.47-1.787-5.618-1.298-1.679m71.48 1.429c-1.611 2.642-2.891 6.235-1.663 4.667 1.489-1.901 4.712-7.917 4.241-7.917-.328 0-1.488 1.463-2.578 3.25m-103.644 5.294c-1.102 2.871.513 8.431 3.761 12.955 1.778 2.475 3.604 4.501 4.057 4.501s-.69-1.984-2.541-4.408c-3.436-4.502-5.158-10.031-4.035-12.958.345-.899.34-1.634-.011-1.634s-.905.695-1.231 1.544M214 155.522c0 2.751-.931 4.538-4.25 8.156-2.338 2.548-3.35 4.155-2.25 3.569 4.079-2.169 6.726-6.073 7.246-10.685.283-2.509.231-4.562-.116-4.562-.346 0-.63 1.585-.63 3.522m11.713.749c-3.183 1.093-5.556 2.219-5.274 2.502s3.526-.505 7.209-1.749c5.423-1.831 8.191-2.175 14.569-1.805 4.331.25 7.291.086 6.579-.366-2.446-1.552-17.051-.655-23.083 1.418M292.5 160c-.34.55-.168 1 .382 1s1.278-.45 1.618-1 .168-1-.382-1-1.278.45-1.618 1m-.119 3.219c-1.165.533-3.139 2.785-4.386 5.003s-4.163 6.362-6.48 9.207c-3.432 4.213-4.451 6.462-5.497 12.122-1.869 10.118-5.202 18.309-12.001 29.502-3.309 5.447-6.017 10.3-6.017 10.784 0 .485 1.496 4.207 3.325 8.272 1.828 4.065 3.794 8.516 4.368 9.891 1.027 2.459 1.063 2.434 2.179-1.5.625-2.2 2.978-12.55 5.23-23 4.28-19.859 7.851-30.077 15.38-44 3.816-7.057 7.227-16.199 6.334-16.977-.174-.151-1.269.162-2.435.696m5.55 3.461c-.56 1.475-1.21 4.737-1.444 7.25-.436 4.694-.28 4.327 1.996-4.68 1.418-5.611 1.125-6.978-.552-2.57m-79.775.288c1.457 4.37 11.452 7.322 17.233 5.091 4.019-1.552 2.794-2.224-1.761-.967-4.82 1.331-8.873.414-12.809-2.898-1.723-1.45-2.921-2.001-2.663-1.226M266 170.556c-1.925 1.351-4.062 3.215-4.75 4.142-1.691 2.279-1.556 7.758.341 13.802.862 2.75 1.617 7.816 1.675 11.257.061 3.54.454 5.711.905 5 1.329-2.093.901-7.85-1.171-15.757-2.839-10.833-2.702-11.674 2.728-16.659 5.323-4.887 5.399-5.385.272-1.785m-76.5 1.137c2.635 2.795 16.503 12.782 20.704 14.91 2.601 1.318 6.207 2.348 8.013 2.287 3.041-.101 2.965-.172-1.033-.959-4.768-.938-8.924-3.226-17.184-9.458-6.028-4.548-12.081-8.456-10.5-6.78m53.5 2.279c-1.375 1.06-3.625 2.208-5 2.552s-3.517 1.573-4.759 2.733c-2.366 2.208-2.343 3.132.244 9.743.754 1.925 1.636 4.738 1.962 6.25.325 1.512.953 2.75 1.395 2.75.82 0 4.606-8.551 8.743-19.75 2.48-6.715 1.875-7.717-2.585-4.278m-63 1.249c1.375.597 4.965 2.164 7.978 3.481 3.013 1.318 9.088 5.008 13.5 8.199 10.479 7.581 11.899 8.27 17.196 8.35 3.677.056 4.934-.439 7.144-2.813 2.604-2.798 2.607-2.817.118-.66-1.851 1.603-3.848 2.222-7.172 2.222-4.78 0-4.392.211-22.5-12.244-2.88-1.981-7.734-4.536-10.787-5.679-5.705-2.134-9.949-2.798-5.477-.856m45 .779c1.97 1.273 4.287 1.273 3.5 0-.34-.55-1.604-.993-2.809-.985-1.781.013-1.91.197-.691.985m-62.196 3.965c1.268.556 6.87 1.737 12.451 2.624 5.58.887 11.181 2.006 12.445 2.487s2.3.676 2.3.434c0-1.271-5.035-2.717-14.227-4.084-5.65-.841-11.398-1.741-12.773-2-2.483-.469-2.484-.465-.196.539m131.196.916c0 .975 3.888 4.613 4.307 4.03.162-.226-.741-1.407-2.006-2.625-1.266-1.218-2.301-1.85-2.301-1.405m15.501 1.117c-.339.549-3.068 2.158-6.064 3.575s-5.956 3.556-6.578 4.752l-1.13 2.175 2.385-2.152c1.312-1.183 4.501-3.135 7.085-4.336 4.705-2.187 8.077-5.012 5.982-5.012-.584 0-1.341.449-1.68.998m-159.018 3.501c4.764 3.753 14.98 5.299 23.017 3.481 3.292-.744 2.762-.823-3-.448-7.277.475-11.231-.174-18-2.953-3.464-1.423-3.734-1.433-2.017-.08m106.716 9.001c-3.324 11.164-3.463 13.855-.206 4 1.636-4.95 2.821-9.45 2.632-10-.188-.55-1.28 2.15-2.426 6m-11.024-2.141c-.096 2.123-1.516 9.323-3.155 16-1.639 6.678-3.883 17.833-4.987 24.79-1.103 6.958-2.475 13.883-3.048 15.389-.572 1.507-.848 2.932-.613 3.168.842.842 2.66-6.438 5.145-20.606 1.389-7.916 3.667-18.816 5.063-24.221 1.503-5.821 2.381-11.571 2.153-14.103l-.384-4.276zm-19.817 10.391c-1.51 2.063-3.894 5.016-5.3 6.564-1.915 2.109-2.105 2.641-.758 2.125.987-.38 3.591-3.333 5.785-6.564 4.407-6.49 4.607-8.048.273-2.125m-75.407 3.243c4.718 4.142 11.9 8.358 16.049 9.421 1.375.353-.2-.769-3.5-2.492s-8.106-4.885-10.679-7.027c-6.091-5.07-7.662-4.987-1.87.098m74.15 6.047c-2.419 1.097-4.151 2.244-3.848 2.547s2.733-.584 5.399-1.972c5.779-3.006 4.694-3.409-1.551-.575M151 215.058c1.375 1.107 4.75 3.126 7.5 4.486 2.75 1.361 4.147 1.907 3.104 1.215-8.507-5.65-11.897-7.756-12.454-7.737-.358.012.475.928 1.85 2.036m45 7.495c-3.575.766-9.13 2.345-12.344 3.508l-5.844 2.115-1.945-2.088c-2.833-3.041-3.867-2.579-3.867 1.728 0 3.408-.426 4.055-3.984 6.055l-3.983 2.239 4.116 8.187c5.748 11.431 12.224 20.636 22.307 31.703 11.317 12.421 17.743 23.254 17.441 29.399-.059 1.196-.55.413-1.14-1.819-1.029-3.894-1.065-3.819-5.436 11.5-6.09 21.344-6.603 29.781-2.774 45.652 1.561 6.473 3.201 12.196 3.645 12.718.445.523.798-1.727.785-5-.02-5.435 1.834-22.943 4.019-37.95.739-5.075.797-4.535.373 3.5-.275 5.225-1.146 13.885-1.935 19.243-1.709 11.61-1.764 31.152-.119 42.257 1.132 7.639 1.298 7.991 3.685 7.801 1.375-.109 5.988-.485 10.25-.835l7.75-.637.006-8.664c.004-4.766.868-15.865 1.921-24.665s2.434-22.242 3.069-29.871c.636-7.629 1.974-17.079 2.975-21 1.537-6.023 1.602-7.253.424-7.929-1.9-1.089-1.751-3.562.465-7.715 4.386-8.218 3.659-8.734-3.144-2.235-6.64 6.343-7.322 6.722-10.134 5.643-2.85-1.094-1.665-4.738 3.168-9.745l4.75-4.921-6.195 4.137c-6.867 4.585-7.529 4.776-9.265 2.684-1.794-2.161-.491-4.645 4.474-8.529 5.671-4.436 6.76-6.955 1.296-2.996-4.573 3.312-7.29 3.774-8.203 1.395-.908-2.366-1.008-2.205 4.893-7.875 4.794-4.607 5.503-5.783 5.524-9.164.035-5.681 1.553-11.316 3.907-14.5 2.699-3.65 2.609-6.282-.474-14.007-1.399-3.505-2.296-5.247-1.993-3.872s.77 5.2 1.038 8.5l.487 6-1.402-7.265c-1.69-8.761-5.391-21.26-6.806-22.985-1.369-1.668-13.369-1.501-21.781.303m3.585 4.447c1.157 4.305 4.454 10.123 12.184 21.5 4.111 6.05 7.702 11.225 7.98 11.5 1.717 1.698-3.9-7.761-8.52-14.349-3.028-4.316-7.038-10.841-8.911-14.5-1.873-3.658-3.103-5.526-2.733-4.151m26.794.532-3.122 1.369 3.122 7.963c1.716 4.379 3.418 7.664 3.781 7.299s.978-4.6 1.368-9.413c.78-9.636.681-9.775-5.149-7.218m25.288 18.421C249.1 253.223 247 260.228 247 261.52s.684 5.602 1.52 9.577c1.378 6.548 1.367 8.062-.113 16.117l-1.634 8.889 2.704 6.025c1.487 3.314 2.46 6.268 2.162 6.566s-.837-.636-1.199-2.076c-1.009-4.02-1.873-3.159-3.144 3.132-.639 3.163-1.948 9.125-2.91 13.25-1.032 4.43-1.758 11.594-1.773 17.5-.02 8.395.484 11.685 3.141 20.5 2.77 9.185 4.654 21.016 5.496 34.5l.25 4 6.5-.287c3.575-.159 8.122-.524 10.104-.814l3.603-.525.662-11.687c.363-6.428 1.37-17.087 2.236-23.687s1.745-19.22 1.951-28.045c.272-11.58.94-18.396 2.402-24.5 2.813-11.742 3.531-19.943 2.12-24.218-1.19-3.607-5.239-8.737-6.896-8.737-.503 0-1.897 2.696-3.099 5.992-2.351 6.447-5.169 9.011-7.647 6.955-1.854-1.539-1.825-5.593.079-10.989 1.149-3.257 1.295-5.502.605-9.298-.678-3.73-.53-6.283.58-10.02 1.477-4.974 1.459-5.092-2.14-14.183-5.837-14.749-5.505-14.764-10.893.496m-72.554-5.703c9.2 18.299 23.798 34.934 33.387 38.045 1.912.62 1.917.595.12-.573-8.252-5.362-14.161-10.559-18.92-16.641-5.613-7.174-15.7-23.846-15.7-25.95 0-.622-.456-1.131-1.014-1.131s.399 2.813 2.127 6.25m-18.9-1.062c-1.89 1.889-1.443 2.812 1.36 2.812 1.865 0 2.485-.459 2.25-1.667-.418-2.157-2.074-2.682-3.61-1.145M257.306 246a720 720 0 0 1 4.217 6.25c1.376 2.063 2.75 3.75 3.054 3.75 1.081 0-3.987-8.035-6.464-10.247l-2.522-2.253zm-61.524 27.582c.61 1.145 1.784 2.643 2.608 3.327 2.411 2 7.666 10.684 10.211 16.872 1.293 3.146 2.352 4.819 2.353 3.719.003-3.034-3.486-10.09-8.38-16.949-4.733-6.633-8.879-10.886-6.792-6.969m78.733 14.745c-1.542 3.249-4.027 4.903-9.015 6.001-1.277.281-.873.482 1.115.556 3.632.135 8.097-2.997 9.488-6.654 1.477-3.886.267-3.812-1.588.097m-1.445 9.864c.039.72.457 2.209.93 3.309.767 1.786.867 1.712.93-.691.038-1.48-.38-2.969-.93-3.309s-.968-.029-.93.691m-31.369 7.615c-3.857 6.248-7.701 21.573-7.701 30.697 0 2.579-1.145 14.963-2.545 27.52s-2.413 26.112-2.25 30.123l.295 7.293 5-.236c2.75-.129 7.137-.495 9.75-.813l4.75-.578v-5.682c0-9.969-1.955-22.323-5.244-33.13-4.38-14.393-4.351-25.879.115-44.661 1.721-7.238 3.129-13.875 3.129-14.75 0-2.963-1.704-1.607-5.299 4.217M225 310.122c0 .287.713 2.739 1.585 5.45.872 2.71 1.783 5.555 2.024 6.321s.651 1.18.911.92c.625-.624-2.443-11.043-3.611-12.263-.5-.522-.909-.715-.909-.428m33.905 12.157c2.347 5.475 4.095 13.632 4.095 19.11 0 5.358-3.192 18.042-5.984 23.78-1.986 4.082-1.994 4.2-.138 2.064 1.084-1.247 3.017-5.297 4.296-9 1.887-5.463 2.325-8.807 2.321-17.733-.004-9.843-.287-11.605-2.694-16.75-3.114-6.655-4.619-7.823-1.896-1.471m-41.592 6.471c-1.014 4.896-.747 41.308.35 47.712.564 3.289.848-4.547.844-23.248-.004-15.515-.099-28.21-.212-28.212s-.554 1.686-.982 3.748m138.831 23.396c-11.758 3.384-21.533 18.186-22.904 34.685l-.527 6.331 8.394-.636c11.519-.874 12.172-1.076 14.009-4.345 1.175-2.091 2.625-3.04 5.317-3.476 4.828-.784 8.102.796 10.019 4.835 3.461 7.293.999 14.723-5.455 16.461-4.349 1.171-7.106.294-9.956-3.167-1.382-1.679-2.49-1.804-10.716-1.209-5.046.365-9.654.96-10.24 1.323-1.608.993 2.422 14.545 6.219 20.912 6.605 11.077 17.975 18.15 26.884 16.726 9.941-1.59 18.792-9.866 23.315-21.801 3.593-9.481 4.509-24.821 2.096-35.099-3.581-15.253-13.283-28.03-23.612-31.097-5.976-1.775-7.975-1.844-12.843-.443m19.97 1.711c12.081 7.662 19.904 25.005 19.871 44.053-.027 15.687-4.952 29.118-13.603 37.092-4.713 4.344-3.677 5.21 2.476 2.07 10.763-5.49 19.069-22.803 19.125-39.864.025-7.852-2.735-19.883-6.173-26.907C392.669 359.798 382.038 351 374.488 351c-2.794 0-2.745.085 1.626 2.857M133.5 365.935c-5.076 1.236-8.868 3.681-13.675 8.82-7.279 7.782-11.365 17.451-12.49 29.548l-.644 6.93 2.405-.741c1.322-.407 2.431-.797 2.463-.866s.54-3.073 1.126-6.676c2.06-12.647 10.569-25.229 18.929-27.988 5.764-1.902 13.773-.768 18.671 2.645 5.126 3.572 11.604 12.947 14.092 20.393 2.412 7.222 3.281 23.456 1.651 30.844-5.939 26.92-27.493 36.197-43.019 18.514-3.908-4.451-8.615-14.069-9.527-19.464-.552-3.267-1.046-3.894-3.07-3.894-2.914 0-3.046 1.5-.8 9.068 6.666 22.452 23.614 35.671 39.129 30.518 9.761-3.242 17.452-12.442 22.021-26.342 3.221-9.8 3.654-26.934.941-37.244-4.311-16.383-15.038-30.24-25.907-33.468-5.531-1.643-7.59-1.743-12.296-.597m19.593 1.909c8.897 5.643 16.983 18.284 20.566 32.156 2.061 7.982 2.296 25.318.447 33-2.214 9.195-7.664 19.454-13.263 24.965-5.416 5.331-4.943 6.172 1.759 3.128 8.413-3.82 16.687-15.457 20.058-28.206 2.242-8.482 2.195-25.192-.094-33.802-2.456-9.236-7.312-18.589-12.532-24.137-4.877-5.185-13.687-9.922-18.48-9.938-2.897-.01-2.872.037 1.539 2.834m-21.671 8.519c-5.303 2.405-10.004 7.344-13.188 13.857-2.984 6.103-6.081 18.266-4.941 19.406.311.311 4.309.246 8.886-.144 7.906-.674 8.421-.865 10.334-3.846 2.477-3.859 7.543-4.784 10.719-1.956 4.585 4.082 6.198 13.655 3.258 19.34-2.824 5.46-8.719 6.625-12.635 2.497-2.532-2.669-6.189-3.118-15.264-1.874-4.62.633-4.678.686-4.056 3.75 1.113 5.481 6.126 15.226 10.103 19.637 9.412 10.437 22.356 10.575 31.349.333 19.193-21.861 8.274-70.416-16.202-72.044-3.128-.208-6.541.218-8.363 1.044m226.801 11.194c-3.077 2.155-2.778 3.443.798 3.443 2.216 0 3.312.638 4.111 2.391 1.462 3.209-.042 5.732-4.266 7.154l-3.313 1.116 2.824 1.851c2.093 1.371 3.252 1.584 4.474.821 4.595-2.868 5.171-11.552 1.057-15.931-2.666-2.838-2.81-2.859-5.685-.845m8.371.943c1.352 3.554 1.616 11.238.46 13.398-1.362 2.545-.294 2.787 1.554.352 2.144-2.825 1.741-10.633-.692-13.389-1.792-2.03-1.977-2.081-1.322-.361m42.057-.766c-3.396.352-3.781.656-3.264 2.582.322 1.201.592 2.671.599 3.266.016 1.245 10.972.695 12.391-.622.482-.447.586-1.972.231-3.387-.682-2.716-.967-2.769-9.957-1.839M272 400.036c-44.275 3.769-81.738 6.878-83.25 6.909-2.405.048-2.75.449-2.75 3.2v3.145l6.75-.567 85.75-7.203c43.45-3.65 80.042-6.851 81.315-7.113 1.714-.354 2.233-1.052 2-2.692-.268-1.883-.99-2.239-4.815-2.373-2.475-.087-40.725 2.925-85 6.694m-137.826 5.278c-2.954 3.145-2.748 3.653 1.213 3.011 6.217-1.009 9.903 5.961 6.056 11.452-1.096 1.565-2.575 2.223-5 2.223-3.968 0-4.4 1.217-1.22 3.443 3.237 2.268 6.354 1.911 8.635-.99 4.149-5.274 3.94-13.163-.487-18.424-3.056-3.632-6.224-3.879-9.197-.715m124.84 3.609-6.487.577-1.325 8.5c-.729 4.675-1.41 10.3-1.514 12.5-.188 3.996-.181 4.004 6.983 7.758l7.17 3.757 7.228-1.025c7.388-1.048 10.641-.789 19.431 1.541 2.783.739 9.961 1.311 16.19 1.292 9.363-.028 11.449-.32 12.775-1.785 2.399-2.651 1.478-3.141-13.092-6.962-2.269-.595-7.444-3.235-11.5-5.866-4.055-2.631-9.467-5.998-12.027-7.483-4.35-2.523-8.846-8.897-8.846-12.543 0-1.246-3.278-1.304-14.986-.261M113.5 412.049c-11 .991-21.679 1.835-23.731 1.876l-3.731.075.622 4.75c.342 2.613.756 4.91.919 5.105.682.813 50.915-4.02 52.113-5.015 1.639-1.359 1.705-6.043.108-7.64-1.422-1.422-.894-1.439-26.3.849m122.75-1.312c-6.137.43-6.282.873-2.837 8.661 1.75 3.959 3.74 6.43 7.25 9.004 2.66 1.952 5.097 3.56 5.415 3.573.805.035 2.882-9.317 3.605-16.225l.602-5.75-4.393.185c-2.415.102-6.755.35-9.642.552m20.479 2.959c-.878 5.01.505 8.634 3.881 10.172 1.483.676 2.39.718 2.39.111 0-.539-.648-.979-1.441-.979-2.139 0-2.979-1.885-3.566-8l-.529-5.5zm-43.479-.956-6.25.355v6.916c0 3.804-.956 10.691-2.125 15.306-1.873 7.4-1.961 8.732-.74 11.279 1.53 3.191 4.164 4.094 12.508 4.286 2.829.065 8.454.762 12.5 1.549C240.299 454.6 250 455.07 250 453.442c0-.731-1-2.029-2.223-2.885S246.09 449 246.743 449s2.569 1.35 4.257 3c3.328 3.254 4.49 3.634 5.602 1.834.422-.682-.485-2.13-2.191-3.495-1.601-1.281-2.433-2.331-1.85-2.334 1.359-.006 5.439 3.77 5.439 5.034 0 .529 1.125.961 2.5.961 3.374 0 3.145-1.347-.75-4.416-1.788-1.409-2.748-2.567-2.135-2.573 1.778-.018 6.385 3.995 6.385 5.562 0 .785.9 1.427 2 1.427 2.997 0 2.413-2.529-1.25-5.416-1.788-1.409-2.748-2.567-2.135-2.573 1.778-.018 6.385 3.995 6.385 5.562 0 1.738 2.159 1.868 3.8.227 1.919-1.919 1.396-3.713-1.278-4.384-4.199-1.054-20.715-9.81-28.821-15.281-7.773-5.245-11.275-9.9-13.077-17.385-.726-3.016-.071-2.936-16.374-2.01m-133.239 3.747c-1.357 1.635-.57 6.55 1.228 7.66 1.956 1.209 3.761-.313 3.761-3.172 0-5.619-2.319-7.705-4.989-4.488m129.631 4.263c-.341 2.063-.625 5.112-.631 6.777-.011 3.159 2.366 7.473 4.118 7.473.559 0 .078-1.193-1.069-2.651-1.81-2.302-1.999-3.486-1.434-9 .705-6.882.022-8.686-.984-2.599"/></svg>